<svg xmlns="http://www.w3.org/2000/svg" viewBox="0 0 24 24" fill="none">
  <rect width="24" height="24" rx="6" fill="#FFEDD5" />
  
  <g transform="translate(12, 12) scale(0.95) translate(-12, -12)" stroke="#C2410C" stroke-width="1.75" stroke-linecap="round" stroke-linejoin="round">
    <path d="M9 5H15C16.1046 5 17 5.89543 17 7V17C17 18.1046 16.1046 19 15 19H9C7.89543 19 7 18.1046 7 17V7C7 5.89543 7.89543 5 9 5Z" />
    <path d="M10 5V4C10 3.44772 10.4477 3 11 3H13C13.5523 3 14 3.44772 14 4V5" />
  </g>

  <g transform="translate(12, 12) scale(0.80) translate(-12, -12)" stroke="#C2410C" stroke-width="1.75" stroke-linecap="round" stroke-linejoin="round">
    <circle cx="12" cy="12" r="2.5" />
    <path d="M12 8.5V9.5" />
    <path d="M12 14.5V15.5" />
    <path d="M15 10.2679L14.134 10.7679" />
    <path d="M9.86603 13.2321L9 13.7321" />
    <path d="M15 13.7321L14.134 13.2321" />
    <path d="M9.86603 10.7679L9 10.2679" />
  </g>
</svg>
